{
    "asset" : {
        "generator" : "Khronos glTF Blender I/O v3.2.40",
        "version" : "2.0"
    },
    "scene" : 0,
    "scenes" : [
        {
            "name" : "Scene",
            "nodes" : [
                0,
                1,
                2,
                3
            ]
        }
    ],
    "nodes" : [
        {
            "mesh" : 0,
            "name" : "Cube",
            "translation" : [
                0,
                11.019128799438477,
                0
            ]
        },
        {
            "mesh" : 1,
            "name" : "Sphere",
            "scale" : [
                0.21184265613555908,
                0.21184265613555908,
                0.21184265613555908
            ],
            "translation" : [
                -0.4249102473258972,
                10.736388206481934,
                0.3517969250679016
            ]
        },
        {
            "mesh" : 2,
            "name" : "Sphere.001",
            "scale" : [
                0.21184265613555908,
                0.21184265613555908,
                0.21184265613555908
            ],
            "translation" : [
                -0.4249102473258972,
                10.736388206481934,
                -0.41775941848754883
            ]
        },
        {
            "mesh" : 3,
            "name" : "superspy2",
            "scale" : [
                1.1852869987487793,
                1.1852869987487793,
                1.1852869987487793
            ],
            "translation" : [
                0.009033686481416225,
                9.54977798461914,
                -0.026122717186808586
            ]
        }
    ],
    "materials" : [
        {
            "doubleSided" : true,
            "name" : "Material.001",
            "pbrMetallicRoughness" : {
                "baseColorFactor" : [
                    0.19598716497421265,
                    0.09359385073184967,
                    0.036571767181158066,
                    1
                ],
                "metallicFactor" : 0,
                "roughnessFactor" : 0.5
            }
        },
        {
            "doubleSided" : true,
            "name" : "Material.002",
            "pbrMetallicRoughness" : {
                "baseColorFactor" : [
                    0,
                    0,
                    0,
                    1
                ],
                "metallicFactor" : 0,
                "roughnessFactor" : 0.5
            }
        },
        {
            "doubleSided" : true,
            "name" : "Material.003",
            "pbrMetallicRoughness" : {
                "baseColorFactor" : [
                    0,
                    0,
                    0,
                    1
                ],
                "metallicFactor" : 0,
                "roughnessFactor" : 0.5
            }
        },
        {
            "doubleSided" : true,
            "name" : "Material.004",
            "pbrMetallicRoughness" : {
                "baseColorFactor" : [
                    0.037409428507089615,
                    0.013806477189064026,
                    0.013302520848810673,
                    1
                ],
                "metallicFactor" : 0,
                "roughnessFactor" : 0.5
            }
        },
        {
            "doubleSided" : true,
            "name" : "Material.005",
            "pbrMetallicRoughness" : {
                "baseColorFactor" : [
                    0.8000000715255737,
                    0.2955082952976227,
                    0.705740213394165,
                    1
                ],
                "metallicFactor" : 0,
                "roughnessFactor" : 0.5
            }
        },
        {
            "doubleSided" : true,
            "name" : "Material.006",
            "pbrMetallicRoughness" : {
                "metallicFactor" : 0,
                "roughnessFactor" : 0.5
            }
        },
        {
            "doubleSided" : true,
            "name" : "Material.007",
            "pbrMetallicRoughness" : {
                "baseColorFactor" : [
                    0.8000000715255737,
                    0.14407163858413696,
                    0.2110845446586609,
                    1
                ],
                "metallicFactor" : 0,
                "roughnessFactor" : 0.5
            }
        }
    ],
    "meshes" : [
        {
            "name" : "Cube.002",
            "primitives" : [
                {
                    "attributes" : {
                        "POSITION" : 0,
                        "NORMAL" : 1,
                        "TEXCOORD_0" : 2
                    },
                    "indices" : 3
                }
            ]
        },
        {
            "name" : "Sphere",
            "primitives" : [
                {
                    "attributes" : {
                        "POSITION" : 4,
                        "NORMAL" : 5,
                        "TEXCOORD_0" : 6
                    },
                    "indices" : 7
                }
            ]
        },
        {
            "name" : "Sphere.001",
            "primitives" : [
                {
                    "attributes" : {
                        "POSITION" : 8,
                        "NORMAL" : 9,
                        "TEXCOORD_0" : 10
                    },
                    "indices" : 7
                }
            ]
        },
        {
            "name" : "Cube.001",
            "primitives" : [
                {
                    "attributes" : {
                        "POSITION" : 11,
                        "NORMAL" : 12,
                        "TEXCOORD_0" : 13
                    },
                    "indices" : 14,
                    "material" : 0
                },
                {
                    "attributes" : {
                        "POSITION" : 15,
                        "NORMAL" : 16,
                        "TEXCOORD_0" : 17
                    },
                    "indices" : 18,
                    "material" : 1
                },
                {
                    "attributes" : {
                        "POSITION" : 19,
                        "NORMAL" : 20,
                        "TEXCOORD_0" : 21
                    },
                    "indices" : 22,
                    "material" : 2
                },
                {
                    "attributes" : {
                        "POSITION" : 23,
                        "NORMAL" : 24,
                        "TEXCOORD_0" : 25
                    },
                    "indices" : 26,
                    "material" : 3
                },
                {
                    "attributes" : {
                        "POSITION" : 27,
                        "NORMAL" : 28,
                        "TEXCOORD_0" : 29
                    },
                    "indices" : 30,
                    "material" : 4
                },
                {
                    "attributes" : {
                        "POSITION" : 31,
                        "NORMAL" : 32,
                        "TEXCOORD_0" : 33
                    },
                    "indices" : 34,
                    "material" : 5
                },
                {
                    "attributes" : {
                        "POSITION" : 35,
                        "NORMAL" : 36,
                        "TEXCOORD_0" : 37
                    },
                    "indices" : 38,
                    "material" : 6
                }
            ]
        }
    ],
    "accessors" : [
        {
            "bufferView" : 0,
            "componentType" : 5126,
            "count" : 3400,
            "max" : [
                1.0759414434432983,
                0.4969821274280548,
                4.275681495666504
            ],
            "min" : [
                -1.028625249862671,
                -8.193333625793457,
                0
            ],
            "type" : "VEC3"
        },
        {
            "bufferView" : 1,
            "componentType" : 5126,
            "count" : 3400,
            "type" : "VEC3"
        },
        {
            "bufferView" : 2,
            "componentType" : 5126,
            "count" : 3400,
            "type" : "VEC2"
        },
        {
            "bufferView" : 3,
            "componentType" : 5123,
            "count" : 5016,
            "type" : "SCALAR"
        },
        {
            "bufferView" : 4,
            "componentType" : 5126,
            "count" : 2838,
            "max" : [
                0.9999997019767761,
                1,
                0.9999994039535522
            ],
            "min" : [
                -0.9999990463256836,
                -1,
                -0.9999987483024597
            ],
            "type" : "VEC3"
        },
        {
            "bufferView" : 5,
            "componentType" : 5126,
            "count" : 2838,
            "type" : "VEC3"
        },
        {
            "bufferView" : 6,
            "componentType" : 5126,
            "count" : 2838,
            "type" : "VEC2"
        },
        {
            "bufferView" : 7,
            "componentType" : 5123,
            "count" : 2880,
            "type" : "SCALAR"
        },
        {
            "bufferView" : 8,
            "componentType" : 5126,
            "count" : 2838,
            "max" : [
                0.9999997019767761,
                1,
                0.9999994039535522
            ],
            "min" : [
                -0.9999990463256836,
                -1,
                -0.9999987483024597
            ],
            "type" : "VEC3"
        },
        {
            "bufferView" : 9,
            "componentType" : 5126,
            "count" : 2838,
            "type" : "VEC3"
        },
        {
            "bufferView" : 10,
            "componentType" : 5126,
            "count" : 2838,
            "type" : "VEC2"
        },
        {
            "bufferView" : 11,
            "componentType" : 5126,
            "count" : 1966,
            "max" : [
                4.73829460144043,
                3.2245707511901855,
                0.8345111608505249
            ],
            "min" : [
                -4.73829460144043,
                -1.5484817028045654,
                -0.9218626022338867
            ],
            "type" : "VEC3"
        },
        {
            "bufferView" : 12,
            "componentType" : 5126,
            "count" : 1966,
            "type" : "VEC3"
        },
        {
            "bufferView" : 13,
            "componentType" : 5126,
            "count" : 1966,
            "type" : "VEC2"
        },
        {
            "bufferView" : 14,
            "componentType" : 5123,
            "count" : 2850,
            "type" : "SCALAR"
        },
        {
            "bufferView" : 15,
            "componentType" : 5126,
            "count" : 1322,
            "max" : [
                0.9371803402900696,
                2.0291221141815186,
                1.427432656288147
            ],
            "min" : [
                -0.9371803402900696,
                -6.535065650939941,
                -0.8465534448623657
            ],
            "type" : "VEC3"
        },
        {
            "bufferView" : 16,
            "componentType" : 5126,
            "count" : 1322,
            "type" : "VEC3"
        },
        {
            "bufferView" : 17,
            "componentType" : 5126,
            "count" : 1322,
            "type" : "VEC2"
        },
        {
            "bufferView" : 18,
            "componentType" : 5123,
            "count" : 1968,
            "type" : "SCALAR"
        },
        {
            "bufferView" : 19,
            "componentType" : 5126,
            "count" : 268,
            "max" : [
                0.7259234189987183,
                3.234522819519043,
                0.7273432612419128
            ],
            "min" : [
                -0.7259234189987183,
                0.37269800901412964,
                -0.9674249887466431
            ],
            "type" : "VEC3"
        },
        {
            "bufferView" : 20,
            "componentType" : 5126,
            "count" : 268,
            "type" : "VEC3"
        },
        {
            "bufferView" : 21,
            "componentType" : 5126,
            "count" : 268,
            "type" : "VEC2"
        },
        {
            "bufferView" : 22,
            "componentType" : 5123,
            "count" : 372,
            "type" : "SCALAR"
        },
        {
            "bufferView" : 23,
            "componentType" : 5126,
            "count" : 48,
            "max" : [
                0.3953320384025574,
                2.4029884338378906,
                0.6971275806427002
            ],
            "min" : [
                -0.3953320384025574,
                2.256502628326416,
                0.6541805863380432
            ],
            "type" : "VEC3"
        },
        {
            "bufferView" : 24,
            "componentType" : 5126,
            "count" : 48,
            "type" : "VEC3"
        },
        {
            "bufferView" : 25,
            "componentType" : 5126,
            "count" : 48,
            "type" : "VEC2"
        },
        {
            "bufferView" : 26,
            "componentType" : 5123,
            "count" : 48,
            "type" : "SCALAR"
        },
        {
            "bufferView" : 27,
            "componentType" : 5126,
            "count" : 2832,
            "max" : [
                4.182173252105713,
                1.228448510169983,
                0.9506238698959351
            ],
            "min" : [
                -4.182173252105713,
                -5.182905673980713,
                -0.7290786504745483
            ],
            "type" : "VEC3"
        },
        {
            "bufferView" : 28,
            "componentType" : 5126,
            "count" : 2832,
            "type" : "VEC3"
        },
        {
            "bufferView" : 29,
            "componentType" : 5126,
            "count" : 2832,
            "type" : "VEC2"
        },
        {
            "bufferView" : 30,
            "componentType" : 5123,
            "count" : 4248,
            "type" : "SCALAR"
        },
        {
            "bufferView" : 31,
            "componentType" : 5126,
            "count" : 112,
            "max" : [
                0.4523281455039978,
                2.4568915367126465,
                0.70554518699646
            ],
            "min" : [
                -0.4523281455039978,
                1.9463131427764893,
                0.6092792749404907
            ],
            "type" : "VEC3"
        },
        {
            "bufferView" : 32,
            "componentType" : 5126,
            "count" : 112,
            "type" : "VEC3"
        },
        {
            "bufferView" : 33,
            "componentType" : 5126,
            "count" : 112,
            "type" : "VEC2"
        },
        {
            "bufferView" : 34,
            "componentType" : 5123,
            "count" : 168,
            "type" : "SCALAR"
        },
        {
            "bufferView" : 35,
            "componentType" : 5126,
            "count" : 36,
            "max" : [
                0.07468122243881226,
                1.9331111907958984,
                0.6975940465927124
            ],
            "min" : [
                -0.07468122243881226,
                1.9103440046310425,
                0.6292334198951721
            ],
            "type" : "VEC3"
        },
        {
            "bufferView" : 36,
            "componentType" : 5126,
            "count" : 36,
            "type" : "VEC3"
        },
        {
            "bufferView" : 37,
            "componentType" : 5126,
            "count" : 36,
            "type" : "VEC2"
        },
        {
            "bufferView" : 38,
            "componentType" : 5123,
            "count" : 36,
            "type" : "SCALAR"
        }
    ],
    "bufferViews" : [
        {
            "buffer" : 0,
            "byteLength" : 40800,
            "byteOffset" : 0
        },
        {
            "buffer" : 0,
            "byteLength" : 40800,
            "byteOffset" : 40800
        },
        {
            "buffer" : 0,
            "byteLength" : 27200,
            "byteOffset" : 81600
        },
        {
            "buffer" : 0,
            "byteLength" : 10032,
            "byteOffset" : 108800
        },
        {
            "buffer" : 0,
            "byteLength" : 34056,
            "byteOffset" : 118832
        },
        {
            "buffer" : 0,
            "byteLength" : 34056,
            "byteOffset" : 152888
        },
        {
            "buffer" : 0,
            "byteLength" : 22704,
            "byteOffset" : 186944
        },
        {
            "buffer" : 0,
            "byteLength" : 5760,
            "byteOffset" : 209648
        },
        {
            "buffer" : 0,
            "byteLength" : 34056,
            "byteOffset" : 215408
        },
        {
            "buffer" : 0,
            "byteLength" : 34056,
            "byteOffset" : 249464
        },
        {
            "buffer" : 0,
            "byteLength" : 22704,
            "byteOffset" : 283520
        },
        {
            "buffer" : 0,
            "byteLength" : 23592,
            "byteOffset" : 306224
        },
        {
            "buffer" : 0,
            "byteLength" : 23592,
            "byteOffset" : 329816
        },
        {
            "buffer" : 0,
            "byteLength" : 15728,
            "byteOffset" : 353408
        },
        {
            "buffer" : 0,
            "byteLength" : 5700,
            "byteOffset" : 369136
        },
        {
            "buffer" : 0,
            "byteLength" : 15864,
            "byteOffset" : 374836
        },
        {
            "buffer" : 0,
            "byteLength" : 15864,
            "byteOffset" : 390700
        },
        {
            "buffer" : 0,
            "byteLength" : 10576,
            "byteOffset" : 406564
        },
        {
            "buffer" : 0,
            "byteLength" : 3936,
            "byteOffset" : 417140
        },
        {
            "buffer" : 0,
            "byteLength" : 3216,
            "byteOffset" : 421076
        },
        {
            "buffer" : 0,
            "byteLength" : 3216,
            "byteOffset" : 424292
        },
        {
            "buffer" : 0,
            "byteLength" : 2144,
            "byteOffset" : 427508
        },
        {
            "buffer" : 0,
            "byteLength" : 744,
            "byteOffset" : 429652
        },
        {
            "buffer" : 0,
            "byteLength" : 576,
            "byteOffset" : 430396
        },
        {
            "buffer" : 0,
            "byteLength" : 576,
            "byteOffset" : 430972
        },
        {
            "buffer" : 0,
            "byteLength" : 384,
            "byteOffset" : 431548
        },
        {
            "buffer" : 0,
            "byteLength" : 96,
            "byteOffset" : 431932
        },
        {
            "buffer" : 0,
            "byteLength" : 33984,
            "byteOffset" : 432028
        },
        {
            "buffer" : 0,
            "byteLength" : 33984,
            "byteOffset" : 466012
        },
        {
            "buffer" : 0,
            "byteLength" : 22656,
            "byteOffset" : 499996
        },
        {
            "buffer" : 0,
            "byteLength" : 8496,
            "byteOffset" : 522652
        },
        {
            "buffer" : 0,
            "byteLength" : 1344,
            "byteOffset" : 531148
        },
        {
            "buffer" : 0,
            "byteLength" : 1344,
            "byteOffset" : 532492
        },
        {
            "buffer" : 0,
            "byteLength" : 896,
            "byteOffset" : 533836
        },
        {
            "buffer" : 0,
            "byteLength" : 336,
            "byteOffset" : 534732
        },
        {
            "buffer" : 0,
            "byteLength" : 432,
            "byteOffset" : 535068
        },
        {
            "buffer" : 0,
            "byteLength" : 432,
            "byteOffset" : 535500
        },
        {
            "buffer" : 0,
            "byteLength" : 288,
            "byteOffset" : 535932
        },
        {
            "buffer" : 0,
            "byteLength" : 72,
            "byteOffset" : 536220
        }
    ],
    "buffers" : [
        {
            "byteLength" : 536292,
            "uri" : "data:application/octet-stream;base64,"
        }
    ]
}
